# xmcd
#
# Track frame offsets:
#	150
#	17561
#	31381
#	46000
#	61368
#	75420
#	93000
#	110518
#	126316
#	145582
#	159462
#	179910
#	196198
#	214448
#	226088
#	244138
#	259863
#	273646
#	288111
#	301262
#	317226
#
# Disc length: 4417 seconds
#
# Revision: 1
# Processed by: cddbd v1.5PL3 Copyright (c) Steve Scherf et al.
# Submitted via: audiograbber 1.83.01
#
DISCID=22113f15
DTITLE=Various Artist - XXXL 4. (2000)
DYEAR=1900
DGENRE=
TTITLE0=Мурат Насыров. - Голос твой.
TTITLE1=Леонид Агутин. - Летних ливней грехи.
TTITLE2=Анжелика Варум. - Две недели до любви.
TTITLE3=Наташа Королева and Дмитрий Маликов. - Краденое счастье.
TTITLE4=Какое было кино. - Какое было кино.
TTITLE5=Вадим Байков. - Незаконная жена.
TTITLE6=Данко. - Твой малыш.
TTITLE7=Алекксандр Маршал. - Отпускаю.
TTITLE8=Вячеслав Быков. - Девочка моя.
TTITLE9=Дворянинова. - Ломай, кусай.
TTITLE10=Гости из будущего. - Голубой ангел.
TTITLE11=Наташа Королева. - Чуть-чуть не считается.
TTITLE12=Zемфира. - Не отпускай.
TTITLE13=Лакмус. - Не Ди Каприо.
TTITLE14=Александр Иванов. - Мотив последней песни.
TTITLE15=Лолита. - Подруга.
TTITLE16=Викенс Блейк. - Мастер Гриша.
TTITLE17=Линда. - Волчица.
TTITLE18=Иван Купала. - Виноград.
TTITLE19=Танцы минус. - Иду.
TTITLE20=Коктейль. - Нам хорошо.
EXTD=
EXTT0=
EXTT1=
EXTT2=
EXTT3=
EXTT4=
EXTT5=
EXTT6=
EXTT7=
EXTT8=
EXTT9=
EXTT10=
EXTT11=
EXTT12=
EXTT13=
EXTT14=
EXTT15=
EXTT16=
EXTT17=
EXTT18=
EXTT19=
EXTT20=
PLAYORDER=
